<?xml version="1.0" encoding="utf-8"?>
<svg width="141" height="18" viewBox="0 0 141 18" fill="none" xmlns="http://www.w3.org/2000/svg">
<path d="M10.5281 5.08345C10.4627 4.4246 10.1823 3.91276 9.68679 3.54794C9.19129 3.18312 8.51882 3.00071 7.66939 3.00071C7.09221 3.00071 6.60488 3.08239 6.20739 3.24574C5.8099 3.40365 5.50497 3.62417 5.29261 3.90731C5.0857 4.19046 4.98224 4.51172 4.98224 4.87109C4.97135 5.17057 5.03397 5.43194 5.1701 5.65518C5.31167 5.87843 5.50497 6.07173 5.75 6.23509C5.99503 6.39299 6.27817 6.53184 6.59943 6.65163C6.92069 6.76598 7.26373 6.86399 7.62855 6.94567L9.13139 7.30504C9.86103 7.46839 10.5308 7.6862 11.1406 7.95845C11.7505 8.23071 12.2786 8.56558 12.7251 8.96307C13.1716 9.36056 13.5174 9.82884 13.7624 10.3679C14.0129 10.907 14.1409 11.525 14.1463 12.2219C14.1409 13.2456 13.8795 14.1332 13.3622 14.8846C12.8504 15.6306 12.1098 16.2105 11.1406 16.6243C10.1768 17.0327 9.01432 17.2369 7.65305 17.2369C6.30268 17.2369 5.12654 17.0299 4.12464 16.6161C3.1282 16.2023 2.34955 15.5897 1.78871 14.7784C1.23331 13.9616 0.941998 12.9516 0.914773 11.7482H4.337C4.37512 12.3091 4.53575 12.7773 4.81889 13.1531C5.10748 13.5233 5.49136 13.8037 5.97053 13.9943C6.45514 14.1795 7.00237 14.272 7.61222 14.272C8.21117 14.272 8.73118 14.1849 9.17223 14.0107C9.61873 13.8364 9.96449 13.5941 10.2095 13.2837C10.4545 12.9734 10.5771 12.6167 10.5771 12.2138C10.5771 11.8381 10.4654 11.5223 10.2422 11.2663C10.0244 11.0104 9.70313 10.7926 9.27841 10.6129C8.85914 10.4332 8.34458 10.2699 7.73473 10.1229L5.91335 9.66548C4.50308 9.32244 3.38956 8.7861 2.5728 8.05646C1.75604 7.32682 1.35038 6.34399 1.35582 5.10795C1.35038 4.09517 1.61991 3.21035 2.16442 2.45348C2.71437 1.69661 3.46851 1.10582 4.42685 0.681108C5.38518 0.256392 6.4742 0.0440335 7.69389 0.0440335C8.93537 0.0440335 10.0189 0.256392 10.9446 0.681108C11.8757 1.10582 12.5999 1.69661 13.1172 2.45348C13.6345 3.21035 13.9013 4.087 13.9176 5.08345H10.5281ZM15.8881 3.18856V0.272727H29.626V3.18856H24.5049V17H21.0091V3.18856H15.8881ZM32.7276 17H28.9379L34.7124 0.272727H39.2699L45.0362 17H41.2464L37.0565 4.09517H36.9258L32.7276 17ZM32.4908 10.4251H41.4425V13.1857H32.4908V10.4251ZM47.0495 17V0.272727H53.649C54.9122 0.272727 55.9904 0.498697 56.8833 0.950639C57.7818 1.39713 58.4651 2.03149 58.9334 2.85369C59.4071 3.67045 59.644 4.63151 59.644 5.73686C59.644 6.84766 59.4044 7.80327 58.9252 8.60369C58.4461 9.39867 57.7518 10.0085 56.8425 10.4332C55.9386 10.858 54.8442 11.0703 53.5591 11.0703H49.1404V8.22798H52.9874C53.6626 8.22798 54.2234 8.13542 54.6699 7.95028C55.1164 7.76515 55.4486 7.48745 55.6664 7.11719C55.8896 6.74692 56.0012 6.28681 56.0012 5.73686C56.0012 5.18146 55.8896 4.71319 55.6664 4.33203C55.4486 3.95088 55.1137 3.66229 54.6618 3.46626C54.2153 3.2648 53.6517 3.16406 52.9711 3.16406H50.5861V17H47.0495ZM56.0829 9.38778L60.2402 17H56.3361L52.2686 9.38778H56.0829ZM62.1433 17V0.272727H65.6799V7.17436H72.8592V0.272727H76.3876V17H72.8592V10.0902H65.6799V17H62.1433ZM94.6749 8.63636C94.6749 10.4605 94.3291 12.0123 93.6376 13.2919C92.9515 14.5715 92.015 15.5489 90.8279 16.2241C89.6464 16.8938 88.3178 17.2287 86.8422 17.2287C85.3556 17.2287 84.0216 16.8911 82.84 16.2159C81.6584 15.5407 80.7246 14.5633 80.0385 13.2837C79.3525 12.0041 79.0094 10.455 79.0094 8.63636C79.0094 6.81226 79.3525 5.26042 80.0385 3.98082C80.7246 2.70123 81.6584 1.72656 82.84 1.05682C84.0216 0.381628 85.3556 0.0440335 86.8422 0.0440335C88.3178 0.0440335 89.6464 0.381628 90.8279 1.05682C92.015 1.72656 92.9515 2.70123 93.6376 3.98082C94.3291 5.26042 94.6749 6.81226 94.6749 8.63636ZM91.0893 8.63636C91.0893 7.45478 90.9123 6.45833 90.5584 5.64702C90.2099 4.8357 89.7172 4.22041 89.0801 3.80114C88.443 3.38187 87.697 3.17223 86.8422 3.17223C85.9873 3.17223 85.2413 3.38187 84.6042 3.80114C83.9672 4.22041 83.4717 4.8357 83.1177 5.64702C82.7692 6.45833 82.595 7.45478 82.595 8.63636C82.595 9.81794 82.7692 10.8144 83.1177 11.6257C83.4717 12.437 83.9672 13.0523 84.6042 13.4716C85.2413 13.8909 85.9873 14.1005 86.8422 14.1005C87.697 14.1005 88.443 13.8909 89.0801 13.4716C89.7172 13.0523 90.2099 12.437 90.5584 11.6257C90.9123 10.8144 91.0893 9.81794 91.0893 8.63636ZM107.627 0.272727H111.163V11.1357C111.163 12.3554 110.872 13.4226 110.289 14.3374C109.712 15.2521 108.904 15.9654 107.864 16.4773C106.824 16.9837 105.612 17.2369 104.229 17.2369C102.84 17.2369 101.626 16.9837 100.586 16.4773C99.5462 15.9654 98.7376 15.2521 98.1604 14.3374C97.5832 13.4226 97.2947 12.3554 97.2947 11.1357V0.272727H100.831V10.8335C100.831 11.4705 100.97 12.0368 101.248 12.5323C101.531 13.0278 101.928 13.4171 102.44 13.7003C102.952 13.9834 103.548 14.125 104.229 14.125C104.915 14.125 105.511 13.9834 106.018 13.7003C106.53 13.4171 106.924 13.0278 107.202 12.5323C107.485 12.0368 107.627 11.4705 107.627 10.8335V0.272727ZM123.147 5.08345C123.082 4.4246 122.801 3.91276 122.306 3.54794C121.81 3.18312 121.138 3.00071 120.289 3.00071C119.711 3.00071 119.224 3.08239 118.827 3.24574C118.429 3.40365 118.124 3.62417 117.912 3.90731C117.705 4.19046 117.601 4.51172 117.601 4.87109C117.59 5.17057 117.653 5.43194 117.789 5.65518C117.931 5.87843 118.124 6.07173 118.369 6.23509C118.614 6.39299 118.897 6.53184 119.219 6.65163C119.54 6.76598 119.883 6.86399 120.248 6.94567L121.751 7.30504C122.48 7.46839 123.15 7.6862 123.76 7.95845C124.37 8.23071 124.898 8.56558 125.344 8.96307C125.791 9.36056 126.137 9.82884 126.382 10.3679C126.632 10.907 126.76 11.525 126.765 12.2219C126.76 13.2456 126.499 14.1332 125.981 14.8846C125.47 15.6306 124.729 16.2105 123.76 16.6243C122.796 17.0327 121.633 17.2369 120.272 17.2369C118.922 17.2369 117.746 17.0299 116.744 16.6161C115.747 16.2023 114.969 15.5897 114.408 14.7784C113.852 13.9616 113.561 12.9516 113.534 11.7482H116.956C116.994 12.3091 117.155 12.7773 117.438 13.1531C117.727 13.5233 118.11 13.8037 118.59 13.9943C119.074 14.1795 119.622 14.272 120.231 14.272C120.83 14.272 121.35 14.1849 121.791 14.0107C122.238 13.8364 122.584 13.5941 122.829 13.2837C123.074 12.9734 123.196 12.6167 123.196 12.2138C123.196 11.8381 123.085 11.5223 122.861 11.2663C122.644 11.0104 122.322 10.7926 121.898 10.6129C121.478 10.4332 120.964 10.2699 120.354 10.1229L118.532 9.66548C117.122 9.32244 116.009 8.7861 115.192 8.05646C114.375 7.32682 113.97 6.34399 113.975 5.10795C113.97 4.09517 114.239 3.21035 114.784 2.45348C115.334 1.69661 116.088 1.10582 117.046 0.681108C118.004 0.256392 119.093 0.0440335 120.313 0.0440335C121.555 0.0440335 122.638 0.256392 123.564 0.681108C124.495 1.10582 125.219 1.69661 125.736 2.45348C126.254 3.21035 126.52 4.087 126.537 5.08345H123.147ZM129.144 17V0.272727H140.416V3.18856H132.681V7.17436H139.836V10.0902H132.681V14.0842H140.448V17H129.144Z" fill="#FFB198"/>
</svg>
